<?xml version="1.0" standalone="no"?>
<!DOCTYPE svg PUBLIC "-//W3C//DTD SVG 20010904//EN"
 "http://www.w3.org/TR/2001/REC-SVG-20010904/DTD/svg10.dtd">
<svg version="1.0" xmlns="http://www.w3.org/2000/svg"
 width="600.000000pt" height="192.000000pt" viewBox="0 0 600.000000 192.000000"
 preserveAspectRatio="xMidYMid meet">

<g transform="translate(0.000000,192.000000) scale(0.100000,-0.100000)"
fill="#000000" stroke="none">
<path d="M845 1909 c-504 -65 -870 -499 -841 -999 14 -242 95 -435 255 -604
148 -156 339 -256 556 -291 135 -22 4235 -22 4370 0 217 35 408 135 556 291
160 169 241 362 255 604 27 467 -284 873 -756 986 -71 17 -190 18 -2200 20
-1211 1 -2155 -2 -2195 -7z m4224 -169 c51 -6 121 -17 155 -26 72 -18 206 -81
255 -118 l35 -26 -2510 0 -2509 0 25 21 c42 33 201 107 270 125 36 9 99 20
140 24 117 11 4029 11 4139 0z m-3141 -787 l2 -473 -100 0 -100 0 0 468 c0
258 3 472 7 476 4 4 48 5 98 4 l90 -3 3 -472z m687 457 c171 -43 274 -217 274
-460 0 -112 -16 -190 -59 -276 -38 -77 -88 -128 -160 -163 -54 -26 -58 -26
-307 -29 l-253 -3 0 477 0 477 228 -5 c131 -4 248 -11 277 -18z m633 -377 l2
-393 225 0 225 0 0 -80 0 -80 -325 0 -325 0 0 475 0 476 98 -3 97 -3 3 -392z
m1280 310 l3 -83 -246 0 -245 0 0 -105 0 -105 225 0 225 0 0 -85 0 -85 -225 0
-225 0 0 -120 0 -120 255 0 255 0 0 -80 0 -80 -355 0 -355 0 0 468 c0 258 3
472 7 475 4 4 158 6 342 5 l336 -3 3 -82z"/>
<path d="M2300 950 l0 -310 103 0 c127 0 171 12 218 59 50 50 71 124 71 251 0
163 -38 251 -127 291 -31 14 -65 19 -152 19 l-113 0 0 -310z"/>
</g>
</svg>
