<?xml version="1.0" standalone="no"?>
<!DOCTYPE svg PUBLIC "-//W3C//DTD SVG 20010904//EN"
 "http://www.w3.org/TR/2001/REC-SVG-20010904/DTD/svg10.dtd">
<svg version="1.0" xmlns="http://www.w3.org/2000/svg"
 width="980.000000pt" height="710.000000pt" viewBox="0 0 980.000000 710.000000"
 preserveAspectRatio="xMidYMid meet">

<g transform="translate(0.000000,710.000000) scale(0.100000,-0.100000)"
fill="#000000" stroke="none">
<path d="M238 7066 c-110 -45 -185 -127 -220 -238 -17 -58 -18 -161 -18 -2747
0 -2426 2 -2693 16 -2742 42 -144 156 -244 305 -269 36 -5 228 -10 435 -10
l371 0 17 86 c105 529 544 957 1076 1050 124 22 336 22 460 0 410 -72 772
-343 963 -722 47 -94 92 -224 113 -328 l17 -86 756 0 c818 0 846 2 935 54 58
34 123 107 154 174 l27 57 0 2735 0 2735 -27 57 c-35 76 -104 148 -175 184
l-58 29 -2545 2 -2545 3 -57 -24z"/>
<path d="M6325 5576 c-101 -25 -180 -81 -234 -164 -65 -102 -62 31 -59 -2113
3 -1892 4 -1945 22 -1989 58 -136 179 -230 310 -241 l39 -4 23 102 c118 527
545 935 1077 1029 130 24 343 21 473 -4 406 -81 745 -335 933 -701 53 -104
113 -272 126 -351 13 -87 -5 -80 198 -80 100 0 211 5 246 10 111 18 202 77
259 168 64 101 62 55 62 1153 0 1083 1 1059 -56 1234 -34 104 -117 279 -180
380 -56 90 -823 1116 -949 1270 -144 175 -227 244 -347 287 l-63 23 -915 2
c-706 1 -926 -1 -965 -11z m1841 -779 c40 -28 116 -126 422 -548 509 -701 555
-773 579 -891 l6 -28 -1007 0 -1006 0 0 750 0 750 479 0 479 0 48 -33z"/>
<path d="M2325 1740 c-285 -45 -527 -222 -655 -479 -68 -134 -85 -214 -85
-386 1 -171 13 -229 75 -362 46 -98 87 -160 155 -232 327 -348 874 -369 1223
-46 89 82 150 166 201 277 63 135 75 192 75 363 0 114 -4 166 -18 215 -87 313
-327 552 -631 630 -93 24 -254 33 -340 20z"/>
<path d="M7605 1740 c-354 -56 -643 -319 -725 -660 -27 -116 -27 -293 0 -408
49 -204 186 -400 363 -521 270 -184 642 -193 931 -23 106 62 235 191 300 300
298 501 31 1149 -533 1293 -89 23 -251 32 -336 19z"/>
</g>
</svg>
