<?xml version="1.0" standalone="no"?>
<!DOCTYPE svg PUBLIC "-//W3C//DTD SVG 20010904//EN"
 "http://www.w3.org/TR/2001/REC-SVG-20010904/DTD/svg10.dtd">
<svg version="1.0" xmlns="http://www.w3.org/2000/svg"
 width="734.000000pt" height="980.000000pt" viewBox="0 0 734.000000 980.000000"
 preserveAspectRatio="xMidYMid meet">

<g transform="translate(0.000000,980.000000) scale(0.100000,-0.100000)"
fill="#000000" stroke="none">
<path d="M3400 9790 c-636 -60 -1229 -298 -1720 -690 -131 -105 -381 -354
-481 -480 -422 -530 -654 -1129 -700 -1810 -20 -305 16 -560 127 -902 247
-760 849 -1791 1735 -2969 l148 -197 -82 -11 c-1197 -168 -2093 -565 -2345
-1040 -104 -196 -97 -408 19 -603 51 -86 185 -228 292 -310 818 -624 2683
-922 4422 -707 899 111 1674 366 2116 694 113 85 255 233 307 320 64 109 92
205 92 317 0 109 -16 176 -65 276 -206 416 -921 782 -1921 981 -130 26 -473
81 -504 81 -5 0 64 98 154 218 1062 1416 1703 2601 1826 3377 28 178 33 291
21 475 -53 781 -358 1473 -894 2027 -500 516 -1146 839 -1877 938 -137 19
-536 27 -670 15z m495 -1595 c647 -98 1156 -558 1315 -1189 108 -428 29 -891
-214 -1256 -238 -355 -578 -587 -1003 -683 -85 -19 -128 -22 -323 -22 -195 0
-238 3 -323 22 -422 95 -768 331 -1003 683 -368 554 -345 1292 58 1830 66 88
217 240 304 305 214 162 465 268 731 309 119 19 336 19 458 1z m-1033 -5901
c131 -163 144 -184 125 -188 -12 -3 -65 -12 -117 -21 -570 -97 -998 -307
-1109 -545 -38 -80 -37 -193 2 -268 63 -124 184 -226 381 -322 506 -249 1360
-349 2133 -250 670 86 1165 302 1298 566 25 51 30 70 30 139 0 68 -4 89 -28
138 -91 185 -363 353 -749 461 -133 38 -406 96 -450 96 -15 0 -29 4 -32 9 -3
5 58 90 137 189 106 135 148 181 164 181 37 1 387 -47 538 -75 1352 -244 1979
-762 1501 -1239 -370 -369 -1312 -637 -2481 -705 -223 -13 -845 -13 -1071 0
-743 43 -1431 174 -1902 361 -510 203 -775 462 -733 718 25 152 129 282 331
413 380 247 956 414 1795 521 90 12 78 21 237 -179z m405 -496 c227 -271 397
-467 405 -465 10 3 227 255 398 461 l145 176 60 -6 c87 -9 315 -51 426 -79
311 -80 539 -201 619 -329 27 -44 35 -111 20 -166 -19 -71 -128 -172 -257
-237 -751 -382 -2531 -317 -2989 110 -140 130 -140 246 3 376 139 128 403 228
778 295 77 14 154 27 170 29 75 11 75 11 222 -165z"/>
<path d="M4240 7300 l0 -330 40 0 40 0 0 139 0 139 138 4 c102 3 145 8 168 21
131 69 136 262 9 334 -37 21 -52 23 -217 23 l-178 0 0 -330z m347 237 c64 -34
64 -148 0 -187 -27 -17 -51 -20 -144 -20 l-113 0 0 116 0 116 113 -4 c80 -3
121 -9 144 -21z"/>
<path d="M3082 7174 c-81 -40 -98 -78 -124 -273 -21 -153 -23 -162 -45 -166
-13 -3 -35 -7 -49 -10 -44 -10 -111 -81 -134 -143 -20 -53 -21 -72 -18 -302 2
-184 6 -251 17 -270 24 -45 64 -80 98 -86 l33 -6 0 -105 c0 -102 1 -105 29
-134 34 -34 83 -39 132 -13 43 22 59 68 59 169 l0 85 449 0 449 0 4 -105 c3
-98 5 -107 30 -131 19 -20 40 -28 77 -32 46 -4 53 -2 81 26 30 30 30 32 30
135 0 110 3 117 49 117 28 0 69 37 94 83 21 40 22 53 22 282 0 179 -4 250 -14
279 -18 51 -80 118 -131 141 -22 10 -42 25 -44 34 -3 9 -14 77 -26 151 -12 74
-29 153 -39 175 -22 50 -79 101 -128 114 -24 7 -191 11 -444 11 l-405 0 -52
-26z m798 -769 c10 -12 10 -18 0 -30 -11 -13 -60 -15 -335 -15 -275 0 -324 2
-335 15 -10 12 -10 18 0 30 11 13 60 15 335 15 275 0 324 -2 335 -15z m5 -150
c0 -20 -7 -20 -335 -20 l-335 0 -3 23 -3 22 338 -2 c330 -3 338 -3 338 -23z
m5 -130 c10 -12 10 -18 0 -30 -11 -13 -60 -15 -335 -15 -275 0 -324 2 -335 15
-10 12 -10 18 0 30 11 13 60 15 335 15 275 0 324 -2 335 -15z"/>
<path d="M2680 5550 l0 -50 1025 0 1025 0 0 50 0 50 -1025 0 -1025 0 0 -50z"/>
</g>
</svg>
