<?xml version="1.0" standalone="no"?>
<!DOCTYPE svg PUBLIC "-//W3C//DTD SVG 20010904//EN"
 "http://www.w3.org/TR/2001/REC-SVG-20010904/DTD/svg10.dtd">
<svg version="1.0" xmlns="http://www.w3.org/2000/svg"
     width="626.000000pt" height="575.000000pt" viewBox="0 0 626.000000 575.000000"
 preserveAspectRatio="xMidYMid meet">

<g transform="translate(0.000000,575.000000) scale(0.100000,-0.100000)"
fill="#000000" stroke="none">
<path d="M2060 3973 c-19 -10 -45 -33 -57 -52 l-23 -34 0 -783 0 -782 -43 -21
c-24 -12 -50 -33 -58 -47 -18 -34 -17 -95 1 -129 24 -45 57 -55 183 -55 l115
0 12 48 c17 69 57 137 110 186 60 56 115 84 201 102 120 25 244 -13 340 -103
50 -47 104 -140 115 -199 l6 -34 687 0 686 0 13 52 c28 120 129 229 250 269
222 74 450 -50 511 -279 l12 -42 85 0 c54 0 95 5 112 14 79 41 72 173 -11 214
l-27 13 0 144 c0 178 -12 274 -51 391 -90 275 -326 492 -598 549 -100 21 -351
21 -391 0 -17 -9 -30 -20 -30 -25 0 -6 -4 -10 -10 -10 -5 0 -10 105 -12 263
-3 285 -6 300 -61 341 -28 21 -32 21 -1030 24 -939 2 -1004 1 -1037 -15z
m2510 -744 c155 -24 349 -159 433 -300 42 -71 46 -110 17 -139 -19 -19 -33
-20 -322 -20 -266 0 -304 2 -320 17 -16 15 -18 35 -18 212 0 108 4 201 8 208
20 32 93 40 202 22z"/>
<path d="M1750 3775 c-366 -82 -439 -100 -432 -107 5 -5 58 -19 118 -32 60
-13 163 -36 229 -51 66 -15 127 -28 135 -29 12 -1 16 18 18 108 1 60 -1 112
-5 116 -4 4 -33 1 -63 -5z"/>
<path d="M1625 3229 c-71 -10 -215 -30 -320 -44 -104 -14 -226 -31 -270 -38
l-80 -13 85 -12 c47 -7 166 -24 265 -37 99 -13 247 -33 329 -45 81 -11 157
-20 167 -20 18 0 19 9 19 115 l0 115 -32 -1 c-18 -1 -91 -9 -163 -20z"/>
<path d="M1755 2715 c-5 -3 -118 -16 -250 -29 -574 -60 -731 -78 -745 -87 -11
-6 -5 -8 20 -9 19 0 134 -11 255 -25 121 -13 326 -35 455 -49 129 -14 257 -28
283 -31 l48 -6 -3 118 c-3 118 -3 118 -28 120 -14 1 -29 0 -35 -2z"/>
<path d="M2489 2288 c-60 -16 -131 -77 -163 -140 -36 -74 -43 -130 -22 -201
21 -74 69 -133 136 -171 48 -27 65 -31 130 -31 64 0 83 4 129 30 65 36 105 83
131 153 40 105 16 206 -66 289 -73 74 -171 99 -275 71z"/>
<path d="M4639 2285 c-57 -18 -133 -84 -161 -138 -47 -94 -31 -225 38 -306 57
-66 123 -96 214 -96 64 0 83 5 123 28 63 37 94 71 125 137 63 132 5 292 -129
360 -53 27 -151 34 -210 15z"/>
</g>
</svg>
