<?xml version="1.0" standalone="no"?>
<!DOCTYPE svg PUBLIC "-//W3C//DTD SVG 20010904//EN"
 "http://www.w3.org/TR/2001/REC-SVG-20010904/DTD/svg10.dtd">
<svg version="1.0" xmlns="http://www.w3.org/2000/svg"
 width="400.000000pt" height="200.000000pt" viewBox="0 0 400.000000 200.000000"
 preserveAspectRatio="xMidYMid meet">

<g transform="translate(0.000000,200.000000) scale(0.100000,-0.100000)"
fill="#000000" stroke="none">
<path d="M0 1944 c0 -33 4 -53 10 -49 12 7 50 -12 50 -25 0 -6 -13 -10 -30
-10 -17 0 -30 -4 -30 -10 0 -5 20 -10 44 -10 35 0 47 -5 60 -24 19 -30 15 -33
-52 -42 l-52 -7 0 -263 0 -264 51 21 c68 26 92 39 85 46 -3 3 -12 0 -21 -7
-18 -15 -20 1 -3 18 9 9 9 12 -1 12 -7 0 -9 5 -6 11 4 6 14 8 22 5 8 -3 12 -2
9 2 -2 4 84 41 192 81 108 40 226 83 262 96 100 38 121 39 197 16 37 -11 111
-32 163 -46 133 -36 128 -34 108 -49 -32 -23 -19 -29 51 -22 l69 7 32 -70 c18
-39 37 -71 41 -71 5 0 22 27 39 60 29 57 32 60 68 61 l37 1 -35 10 c-19 5 -44
21 -56 35 -19 24 -25 26 -68 20 -45 -6 -151 19 -419 99 -33 10 -17 22 53 39
42 10 85 15 108 11 20 -3 84 -10 142 -15 70 -6 170 -26 300 -60 107 -28 243
-63 303 -78 59 -14 107 -29 107 -33 0 -3 -17 -12 -37 -19 -21 -8 -65 -26 -98
-42 -39 -18 -64 -24 -71 -18 -8 6 -44 -20 -115 -86 l-104 -95 -55 5 c-30 3
-206 15 -390 26 -184 11 -384 24 -444 28 -100 7 -112 6 -155 -14 -25 -12 -117
-50 -203 -85 l-158 -64 0 -88 c0 -48 2 -88 4 -88 15 0 105 64 100 71 -3 5 3 9
13 9 14 0 11 5 -12 21 -25 18 -27 20 -7 16 22 -5 32 8 11 15 -9 3 226 118 295
144 9 3 18 -11 26 -42 13 -44 12 -49 -5 -58 -10 -6 -98 -64 -196 -128 -112
-75 -187 -118 -203 -118 -26 0 -26 -1 -26 -75 0 -41 3 -75 8 -75 4 0 27 14 51
30 42 29 49 30 150 30 58 0 164 -7 236 -15 72 -8 133 -15 138 -15 4 0 7 -10 7
-22 0 -46 14 -50 56 -18 42 30 84 36 84 12 0 -8 -21 -33 -47 -57 -54 -50 -53
-68 6 -86 46 -14 47 -16 25 -47 l-15 -22 132 0 c125 0 135 1 168 25 l36 24
265 -23 c193 -18 308 -23 422 -20 170 5 187 10 238 64 l31 33 122 -7 c187 -11
247 -15 308 -21 46 -5 58 -3 63 10 9 24 8 25 -11 18 -11 -4 -14 -3 -9 6 4 6 1
22 -7 35 -14 21 -25 24 -129 30 -250 15 -274 19 -304 47 -12 11 -30 22 -40 24
-11 1 -17 9 -15 16 24 84 25 89 11 113 -7 14 -18 22 -24 19 -6 -4 -5 0 2 9 8
10 10 30 6 57 -6 39 -5 41 19 41 14 0 36 -4 49 -10 13 -5 56 -19 96 -31 l72
-21 0 -113 c0 -82 3 -114 13 -116 6 -2 219 -2 472 1 253 3 452 6 443 8 -10 1
-18 9 -18 18 0 13 3 14 14 5 12 -10 15 -7 18 21 3 31 5 33 35 30 32 -3 33 -2
33 32 0 31 -3 36 -24 36 -13 0 -31 3 -39 6 -11 4 -15 -3 -15 -28 0 -75 50 -68
-462 -68 l-460 0 0 237 c0 130 -3 234 -6 230 -3 -3 -28 1 -56 9 -27 9 -56 13
-63 10 -8 -3 -16 0 -18 7 -3 9 -9 9 -23 1 -16 -9 -21 -6 -36 29 -28 62 -20
162 11 143 6 -4 20 -9 31 -11 27 -5 337 -74 429 -95 112 -25 104 -40 -21 -40
-86 0 -105 -3 -105 -15 0 -8 4 -15 9 -15 4 0 8 5 8 10 0 14 47 12 54 -2 5 -10
7 -10 12 0 7 16 31 16 37 0 4 -10 6 -10 6 0 1 14 41 17 41 2 0 -5 5 -10 11
-10 5 0 7 5 4 10 -3 6 1 10 9 10 9 0 16 -5 16 -12 0 -9 3 -9 12 0 16 16 55 15
61 0 4 -10 6 -10 6 0 1 16 28 16 34 0 4 -10 6 -10 6 0 1 6 8 12 16 12 8 0 15
-6 15 -12 0 -10 2 -10 8 -1 9 14 54 13 65 -2 4 -6 11 -5 18 5 8 11 12 12 16 3
3 -9 33 -13 106 -11 83 1 93 2 52 8 -41 6 -31 7 52 8 89 2 102 0 106 -15 3
-13 5 -11 6 6 1 20 5 22 24 16 12 -4 86 -10 165 -12 125 -4 142 -3 142 11 0
13 -14 16 -82 16 -86 0 -207 17 -222 31 -9 8 44 85 102 147 25 27 36 31 64 27
18 -2 166 -23 328 -45 162 -22 305 -42 318 -44 13 -2 22 2 22 10 0 18 -4 19
-354 64 -170 21 -313 43 -318 48 -15 15 31 52 66 52 41 0 112 30 131 56 16 22
45 23 218 4 l119 -13 -7 -43 c-5 -36 -3 -44 14 -53 11 -6 33 -11 49 -11 29 0
30 3 37 51 4 27 4 53 1 56 -3 3 -88 16 -188 27 -154 19 -183 24 -180 38 1 10
-7 18 -23 22 -36 9 -31 26 8 25 17 0 120 -10 227 -23 107 -13 197 -21 199 -20
11 10 -18 14 -203 33 -110 12 -202 24 -205 27 -9 10 273 -14 377 -31 17 -3 32
-2 32 3 0 5 -32 13 -70 16 -39 4 -70 9 -70 12 0 3 7 18 15 33 8 16 11 31 8 35
-12 12 -73 6 -73 -6 0 -7 -9 -24 -19 -37 -19 -24 -20 -25 -112 -15 -75 8 -96
7 -104 -3 -13 -17 -17 24 -9 85 5 38 8 42 34 42 21 0 38 12 69 46 23 26 41 51
41 55 0 17 -27 9 -50 -16 -13 -14 -29 -25 -36 -25 -7 0 -15 -9 -19 -20 -4 -13
-14 -19 -28 -18 -33 3 -85 -40 -97 -81 -22 -72 -43 -109 -66 -120 -13 -6 -24
-14 -24 -19 0 -4 -26 -5 -57 -1 -104 13 -103 14 -103 -28 0 -20 7 -45 17 -55
15 -17 15 -20 -8 -44 -22 -24 -29 -25 -79 -20 -30 4 -80 11 -110 17 -30 5
-140 23 -245 39 -104 17 -207 35 -228 41 l-38 10 147 51 146 50 133 -20 c139
-21 183 -19 230 12 13 9 30 13 38 10 13 -4 26 20 27 49 0 14 -68 7 -73 -7 -3
-8 -26 -26 -51 -41 -41 -24 -52 -26 -106 -20 -33 4 -60 11 -60 16 0 5 2 9 4 9
1 0 34 11 72 25 38 14 82 25 99 25 18 0 25 3 18 8 -13 8 -5 19 65 82 32 30
135 100 147 100 3 0 9 -8 13 -17 14 -33 47 -83 54 -83 4 0 21 27 38 60 l30 60
-67 -1 c-52 -1 -80 -7 -118 -27 -62 -33 -157 -95 -213 -140 l-43 -34 -67 16
c-91 21 -253 48 -259 43 -2 -3 29 -10 69 -17 135 -21 152 -36 66 -59 -46 -11
-65 -11 -150 5 -54 9 -100 15 -103 13 -2 -3 29 -11 70 -18 41 -7 75 -16 75
-21 0 -4 -28 -18 -62 -29 l-62 -21 -126 26 c-69 14 -126 28 -128 29 -6 6 29
65 38 65 6 0 9 5 8 11 -3 12 71 38 117 40 19 1 10 4 -23 9 -29 4 -56 10 -59
13 -3 3 2 20 11 38 30 60 32 59 -146 59 l-163 0 -17 -30 c-14 -25 -22 -29 -42
-24 -16 4 -31 1 -40 -9 -8 -8 -34 -18 -58 -22 l-43 -8 67 -11 67 -11 -31 -62
c-18 -35 -40 -64 -51 -67 -26 -6 -328 69 -337 84 -5 8 -19 10 -41 5 -31 -7
-21 -11 96 -42 241 -63 265 -69 271 -76 3 -3 -4 -22 -16 -42 -20 -33 -26 -36
-54 -31 -49 10 -341 63 -453 82 -57 9 -103 21 -103 25 0 5 40 21 90 36 49 14
89 27 87 28 -1 1 -20 5 -42 9 -28 5 -35 4 -25 -3 17 -12 -3 -21 -113 -51 -40
-10 -121 -33 -182 -50 -239 -66 -422 -114 -453 -118 -30 -4 -162 34 -162 47 0
3 83 24 185 45 102 22 185 41 185 44 0 7 -77 -5 -259 -40 l-164 -31 -54 18
c-29 10 -53 21 -53 25 0 16 136 30 200 20 87 -13 100 -12 100 3 0 14 36 28
130 49 35 8 55 18 55 27 0 32 60 32 210 1 80 -16 151 -30 158 -29 27 1 -36 19
-125 34 -51 10 -97 22 -103 29 -5 6 -37 12 -69 13 -33 2 -69 10 -83 18 -13 9
-28 13 -34 10 -5 -4 -21 0 -34 9 -13 9 -35 16 -49 16 -14 0 -28 5 -31 11 -4 6
-19 7 -37 3 -33 -7 -34 -2 -13 49 6 14 1 17 -29 17 l-37 0 17 -31 c22 -43 10
-51 -83 -55 -59 -3 -93 1 -138 16 -60 20 -53 20 53 4 52 -8 59 12 7 22 -34 6
-59 24 -34 24 7 0 10 3 6 6 -3 3 -83 -2 -177 -12 -132 -14 -173 -15 -182 -6
-9 9 2 12 49 12 34 0 65 5 68 10 4 6 -35 10 -109 10 l-116 0 0 -56z m350 -26
c77 -13 90 -19 64 -29 -11 -5 4 -6 32 -2 47 5 53 3 59 -17 4 -12 5 -23 3 -26
-8 -8 -221 -44 -259 -44 -25 0 -39 5 -43 16 -4 9 -5 19 -2 21 2 2 46 12 97 22
105 21 82 27 -38 10 -77 -11 -78 -11 -100 16 -13 14 -23 30 -23 35 0 20 86 19
210 -2z m172 -122 l17 -24 -84 -16 c-78 -14 -88 -14 -131 2 l-46 17 88 21
c117 29 135 29 156 0z m2458 -25 c0 -5 -12 -11 -27 -14 -16 -3 -37 -9 -47 -13
-13 -5 -17 -4 -12 4 4 6 21 16 39 21 43 12 47 12 47 2z m-1539 -46 c88 -15
104 -22 68 -28 -13 -3 -85 -19 -159 -36 -161 -37 -296 -40 -307 -6 -4 13 266
94 295 89 13 -3 59 -11 103 -19z m1067 -1 c45 -9 82 -20 82 -24 0 -12 -124
-50 -160 -49 -45 1 -83 12 -87 24 -1 6 6 25 18 44 16 26 25 32 42 27 12 -3 59
-13 105 -22z m-1950 -111 c39 -13 72 -28 72 -32 0 -7 -90 -38 -250 -87 -71
-22 -74 -22 -50 -4 14 11 35 23 48 26 26 7 28 17 7 34 -18 15 -133 9 -143 -7
-8 -12 -104 -24 -96 -12 3 5 15 10 27 10 19 1 19 2 3 6 -15 4 -16 7 -5 14 10
6 10 9 2 9 -7 0 -13 7 -13 15 0 9 6 12 18 9 13 -5 14 -4 3 4 -19 14 4 81 33
92 19 8 19 9 -6 9 -29 1 -40 21 -12 21 8 0 12 5 9 10 -3 6 58 -13 137 -41 79
-28 176 -62 216 -76z m1131 68 c11 -7 9 -11 -9 -21 -32 -17 -18 -23 108 -45
79 -14 110 -16 137 -8 33 11 35 10 35 -12 0 -17 12 -31 42 -49 l42 -25 -57
-26 c-32 -14 -66 -25 -77 -25 -17 0 -575 133 -609 145 -8 3 -11 8 -8 11 5 5
179 47 237 57 46 8 145 7 159 -2z m165 -31 c39 -8 55 -15 48 -22 -7 -7 -29 -6
-68 2 -84 16 -92 19 -75 30 8 4 19 7 25 5 6 -2 37 -9 70 -15z m512 -10 c27 0
14 -17 -23 -28 -44 -13 -48 -11 -33 18 7 13 17 19 27 16 8 -3 21 -6 29 -6z
m-161 -60 c-14 -27 -25 -58 -25 -69 0 -11 -7 -27 -15 -35 -14 -14 -13 -16 11
-22 29 -7 42 4 75 62 13 25 31 34 125 62 l109 34 90 -16 c50 -9 93 -16 98 -16
18 0 3 -19 -44 -58 l-50 -41 -82 6 c-80 5 -84 5 -168 -35 -118 -55 -118 -55
-199 -36 -70 16 -71 16 -57 37 9 14 25 22 41 22 19 -1 26 4 26 18 0 11 10 32
23 47 12 15 30 42 39 59 28 51 30 35 3 -19z m788 -53 l198 -33 -33 -40 c-18
-23 -62 -76 -98 -118 l-64 -77 -101 2 c-92 2 -100 4 -105 23 -4 16 -16 22 -48
26 l-43 5 43 35 c23 19 62 52 86 73 39 34 48 37 102 37 58 0 85 12 53 24 -9 4
-56 3 -105 0 -75 -6 -95 -11 -123 -33 -18 -14 -64 -50 -101 -78 -70 -55 -88
-62 -118 -40 -16 12 -10 19 67 83 48 38 84 75 81 82 -2 7 1 10 6 7 6 -4 26 7
46 24 19 17 40 31 47 31 7 0 101 -15 210 -33z m-2696 -63 c-3 -3 -12 -4 -19
-1 -8 3 -5 6 6 6 11 1 17 -2 13 -5z m2236 -10 c3 -4 -20 -27 -51 -51 -55 -43
-59 -44 -107 -38 -27 3 -54 10 -59 15 -14 14 124 79 170 80 22 0 43 -3 47 -6z
m-2358 -25 c-61 -19 -96 -24 -60 -9 19 8 18 9 -5 11 -14 1 -2 5 25 9 88 12
101 9 40 -11z m1058 6 c-3 -9 -8 -14 -10 -11 -3 3 -2 9 2 15 9 16 15 13 8 -4z
m751 -57 c-3 -18 -7 -41 -9 -52 -2 -10 3 -39 12 -65 9 -25 16 -66 15 -89 0
-39 2 -43 19 -39 10 3 22 0 26 -5 4 -7 1 -8 -8 -3 -8 4 -6 -1 4 -11 18 -19 19
-18 52 18 32 35 35 36 69 26 l36 -11 0 -84 0 -83 -112 41 c-62 23 -130 46
-150 52 -30 9 -38 16 -38 35 0 42 -32 20 -101 -68 l-65 -85 28 -69 c35 -85 31
-99 -5 -17 -30 69 -44 75 -167 73 -52 0 -67 2 -50 8 23 7 24 8 3 9 -12 1 -24
5 -28 10 -9 16 16 25 66 22 81 -3 121 13 170 71 40 47 41 50 11 28 -17 -13
-32 -30 -32 -37 0 -7 -6 -10 -17 -6 -13 5 -15 2 -10 -13 6 -17 6 -17 -6 -2 -9
11 -18 14 -27 8 -8 -5 -26 -7 -40 -4 -27 6 -123 35 -128 39 -1 1 29 34 68 73
50 51 70 79 70 97 0 14 7 28 15 31 12 5 235 -44 327 -72 15 -4 15 -1 5 25 -10
28 -18 32 -124 58 -62 15 -113 31 -113 36 0 15 164 85 202 86 37 1 37 0 32
-31z m-885 -262 c103 -9 151 -18 146 -27 -4 -5 -15 -9 -26 -9 -10 0 -19 -4
-19 -10 0 -5 -21 -10 -47 -10 -27 0 -68 -5 -92 -11 -26 -6 -48 -6 -55 -1 -6 5
-46 18 -89 28 -53 12 -76 22 -73 30 3 7 -3 15 -12 18 -17 5 186 -1 267 -8z
m769 -51 c-3 -3 -9 2 -12 12 -6 14 -5 15 5 6 7 -7 10 -15 7 -18z m-18 -5 c0
-5 -5 -10 -11 -10 -5 0 -7 5 -4 10 3 6 8 10 11 10 2 0 4 -4 4 -10z m8 -52
c-16 -10 -20 -10 -37 1 -24 15 -3 32 25 19 18 -8 21 -14 12 -20z m-298 12 c0
-5 -10 -10 -22 -9 -22 0 -22 1 -3 9 11 5 21 9 23 9 1 1 2 -3 2 -9z m380 -43
c0 -5 -4 -5 -10 -2 -5 3 -10 14 -10 23 0 15 2 15 10 2 5 -8 10 -19 10 -23z
m-1845 13 c3 -5 2 -10 -4 -10 -5 0 -13 5 -16 10 -3 6 -2 10 4 10 5 0 13 -4 16
-10z m398 -77 c15 -48 25 -88 23 -90 -4 -4 -249 16 -254 21 -4 4 188 154 199
155 3 1 17 -38 32 -86z m547 28 c0 -11 4 -23 10 -26 12 -8 -10 -45 -27 -45 -7
0 -13 7 -13 15 0 8 -7 15 -15 15 -19 0 -19 5 1 35 19 30 44 33 44 6z m51 6
c-1 -12 -15 -9 -19 4 -3 6 1 10 8 8 6 -3 11 -8 11 -12z m567 -92 c-3 -3 -9 2
-12 12 -6 14 -5 15 5 6 7 -7 10 -15 7 -18z m-663 -5 c-3 -5 -14 -10 -23 -10
-15 0 -15 2 -2 10 20 13 33 13 25 0z m615 -45 c14 -8 21 -14 15 -14 -5 0 -21
6 -35 14 -14 8 -20 14 -15 14 6 0 21 -6 35 -14z m300 -25 c-23 -45 -38 -52
-71 -34 -24 13 -24 13 -2 14 13 0 32 12 43 28 33 44 53 38 30 -8z m-65 -58
c-3 -3 -11 0 -18 7 -9 10 -8 11 6 5 10 -3 15 -9 12 -12z m968 1 c-62 -2 -165
-2 -230 0 -65 1 -14 3 112 3 127 0 180 -2 118 -3z m-962 -64 c-15 -15 -16 -14
-19 3 -2 11 2 26 9 35 12 13 14 13 20 -4 4 -11 0 -24 -10 -34z m-543 -8 c6 -1
12 -8 12 -16 0 -20 -56 -20 -63 -1 -7 18 0 25 21 21 9 -2 23 -4 30 -4z"/>
<path d="M374 1595 c-17 -14 -14 -15 40 -13 37 2 61 8 64 16 6 18 -79 16 -104
-3z"/>
<path d="M1786 1135 c4 -8 8 -15 10 -15 2 0 4 7 4 15 0 8 -4 15 -10 15 -5 0
-7 -7 -4 -15z"/>
<path d="M1896 795 c-9 -26 -7 -32 5 -12 6 10 9 21 6 23 -2 3 -7 -2 -11 -11z"/>
<path d="M1865 759 c-4 -6 -5 -12 -2 -15 2 -3 7 2 10 11 7 17 1 20 -8 4z"/>
<path d="M498 1993 c12 -2 30 -2 40 0 9 3 -1 5 -23 4 -22 0 -30 -2 -17 -4z"/>
<path d="M1600 1990 c0 -5 4 -10 9 -10 6 0 13 5 16 10 3 6 -1 10 -9 10 -9 0
-16 -4 -16 -10z"/>
<path d="M1718 1993 c12 -2 32 -2 45 0 12 2 2 4 -23 4 -25 0 -35 -2 -22 -4z"/>
<path d="M3048 1993 c7 -3 16 -2 19 1 4 3 -2 6 -13 5 -11 0 -14 -3 -6 -6z"/>
<path d="M1803 1983 c9 -2 25 -2 35 0 9 3 1 5 -18 5 -19 0 -27 -2 -17 -5z"/>
<path d="M1915 1980 c-18 -8 -17 -9 8 -9 15 -1 27 4 27 9 0 12 -8 12 -35 0z"/>
<path d="M865 1970 c3 -5 13 -10 21 -10 8 0 14 5 14 10 0 6 -9 10 -21 10 -11
0 -17 -4 -14 -10z"/>
<path d="M2540 1956 c0 -10 8 -16 22 -16 12 0 19 1 17 3 -2 1 -12 9 -21 16
-15 12 -18 11 -18 -3z"/>
<path d="M2710 1901 c0 -5 13 -11 29 -13 41 -6 102 2 95 13 -7 12 -124 12
-124 0z"/>
<path d="M1190 1896 c0 -2 11 -6 25 -8 14 -3 25 -1 25 3 0 5 -11 9 -25 9 -14
0 -25 -2 -25 -4z"/>
<path d="M1748 1873 c6 -2 18 -2 25 0 6 3 1 5 -13 5 -14 0 -19 -2 -12 -5z"/>
<path d="M1854 1859 c33 -11 65 -18 70 -15 6 2 -6 7 -26 11 -21 4 -38 11 -38
16 0 5 -15 9 -32 8 -29 -1 -25 -3 26 -20z"/>
<path d="M2628 1873 c7 -3 16 -2 19 1 4 3 -2 6 -13 5 -11 0 -14 -3 -6 -6z"/>
<path d="M2688 1863 c6 -2 18 -2 25 0 6 3 1 5 -13 5 -14 0 -19 -2 -12 -5z"/>
<path d="M2578 1803 c6 -2 18 -2 25 0 6 3 1 5 -13 5 -14 0 -19 -2 -12 -5z"/>
<path d="M3281 1769 c-7 -20 -8 -36 -2 -42 5 -5 42 -10 82 -11 l73 -1 9 33 c6
18 8 35 5 37 -2 3 -38 8 -80 11 l-75 7 -12 -34z"/>
<path d="M835 1690 c-3 -6 5 -10 19 -10 14 0 28 5 31 10 3 6 -5 10 -19 10 -14
0 -28 -4 -31 -10z"/>
<path d="M3620 1320 c0 -5 12 -12 28 -16 15 -3 52 -13 82 -21 69 -18 145 -14
145 7 0 8 -16 20 -35 27 -43 14 -220 17 -220 3z"/>
<path d="M2200 1240 c0 -13 5 -18 15 -14 8 4 15 12 15 20 0 8 -7 14 -15 14 -8
0 -15 -9 -15 -20z"/>
<path d="M3480 1167 c0 -24 23 -33 45 -17 6 4 70 7 143 8 96 0 134 -4 140 -13
4 -8 42 -15 100 -19 l92 -8 0 25 0 24 -200 7 c-111 4 -228 9 -260 12 -58 4
-60 3 -60 -19z"/>
<path d="M2672 1138 c-14 -5 -14 -7 5 -7 12 -1 24 -7 26 -13 4 -10 6 -10 6 0
1 6 10 12 21 12 11 0 20 4 20 9 0 9 -52 9 -78 -1z"/>
<path d="M3532 1098 l3 -43 100 -2 c55 -1 115 0 133 3 30 5 32 7 32 44 l0 40
-136 0 -135 0 3 -42z m42 16 c21 -8 20 -17 -4 -32 -18 -11 -20 -10 -20 13 0
27 1 28 24 19z"/>
<path d="M3132 1049 l-2 -76 39 -1 c38 -2 40 0 39 28 -1 27 -4 30 -34 30 -32
0 -33 1 -37 48 -2 34 -4 26 -5 -29z"/>
<path d="M3530 1000 c0 -48 -9 -45 200 -60 85 -6 181 -13 213 -16 l57 -5 0 31
c0 27 -3 30 -34 30 -18 0 -61 3 -95 6 -58 7 -61 6 -61 -15 0 -14 -6 -21 -17
-20 -11 0 -13 3 -5 6 7 2 12 22 12 44 l0 39 -135 0 -135 0 0 -40z m66 -5 c2
-19 -2 -25 -17 -25 -28 0 -37 30 -14 46 22 16 27 12 31 -21z"/>
<path d="M3482 983 c2 -17 10 -29 21 -31 13 -3 17 3 17 27 0 25 -4 31 -21 31
-16 0 -20 -5 -17 -27z"/>
<path d="M3133 905 c0 -33 2 -45 4 -27 2 18 2 45 0 60 -2 15 -4 0 -4 -33z"/>
<path d="M2895 920 c3 -5 8 -10 11 -10 2 0 4 5 4 10 0 6 -5 10 -11 10 -5 0 -7
-4 -4 -10z"/>
<path d="M2880 881 c14 -11 31 -19 37 -16 7 2 17 -4 22 -13 6 -10 11 -12 11
-4 0 6 9 12 20 12 11 0 20 5 20 10 0 6 -21 10 -46 10 -25 0 -55 5 -67 11 -19
9 -18 7 3 -10z"/>
<path d="M2813 883 c9 -2 23 -2 30 0 6 3 -1 5 -18 5 -16 0 -22 -2 -12 -5z"/>
<path d="M2923 813 c-20 -8 -15 -23 7 -23 11 0 20 -6 20 -12 0 -9 4 -8 10 2 8
12 10 12 10 1 0 -11 4 -11 18 2 10 10 24 17 30 17 7 0 12 5 12 10 0 10 -84 13
-107 3z"/>
<path d="M3480 776 c0 -33 0 -33 58 -39 31 -4 134 -11 227 -17 94 -6 185 -13
203 -16 32 -5 32 -4 32 34 l0 40 -112 7 c-62 3 -169 10 -237 16 -181 13 -171
15 -171 -25z"/>
<path d="M3212 698 c3 -9 40 -14 125 -16 98 -2 122 0 133 13 11 13 -3 15 -125
15 -105 0 -136 -3 -133 -12z"/>
<path d="M2768 648 c-3 -23 -4 -23 -141 -20 -108 2 -138 0 -135 -9 3 -10 43
-12 159 -11 86 2 160 -2 168 -7 24 -16 51 6 51 39 0 29 -1 30 -49 30 -44 0
-50 -3 -53 -22z"/>
<path d="M2901 633 c-6 -21 -11 -44 -11 -52 0 -8 -6 -11 -15 -7 -9 3 -15 0
-15 -9 0 -21 -20 -23 -304 -30 -143 -4 -265 -9 -273 -12 -16 -6 -43 -55 -43
-78 0 -14 45 -15 418 -13 l417 3 -2 32 -3 32 54 -2 c30 -1 52 -5 50 -8 -2 -3
4 -15 12 -27 12 -18 25 -22 69 -22 39 0 56 4 63 16 8 14 38 16 258 15 194 -2
252 -5 264 -16 8 -7 48 -17 88 -20 l72 -8 0 50 0 50 -92 7 c-51 3 -223 15
-383 26 -464 32 -558 40 -572 52 -7 6 -13 21 -13 34 0 38 -28 29 -39 -13z"/>
<path d="M0 411 l0 -81 81 0 c63 0 86 4 104 18 15 12 20 23 15 32 -6 10 -9 8
-13 -6 -2 -10 -5 0 -6 23 0 23 4 45 9 48 24 15 5 23 -62 30 -40 3 -85 8 -100
11 l-28 6 0 -81z"/>
<path d="M208 433 c7 -3 16 -2 19 1 4 3 -2 6 -13 5 -11 0 -14 -3 -6 -6z"/>
<path d="M1128 399 c-29 -16 -39 -44 -28 -75 10 -25 7 -31 -30 -66 -22 -21
-40 -46 -40 -56 0 -12 -4 -10 -13 8 -19 38 -60 54 -102 40 -63 -21 -73 -82
-25 -148 l30 -42 74 0 c41 0 77 4 80 9 3 4 8 35 12 67 6 55 11 63 70 126 35
36 64 73 64 81 0 22 -39 67 -58 67 -9 0 -25 -5 -34 -11z m50 -21 c17 -17 15
-48 -5 -70 -15 -17 -17 -17 -35 -2 -21 19 -24 54 -6 72 15 15 31 15 46 0z
m-200 -164 c31 -21 28 -58 -8 -96 l-30 -33 -25 30 c-29 35 -32 71 -8 97 20 22
42 23 71 2z"/>
<path d="M1140 365 c-16 -19 -5 -47 17 -43 22 4 29 43 9 51 -8 3 -20 -1 -26
-8z m30 -14 c0 -6 -4 -13 -10 -16 -5 -3 -10 1 -10 9 0 9 5 16 10 16 6 0 10 -4
10 -9z"/>
<path d="M920 195 c-18 -22 -8 -50 19 -50 32 0 49 28 32 49 -17 20 -35 20 -51
1z m40 -19 c0 -8 -5 -18 -11 -22 -14 -8 -33 11 -25 25 10 16 36 13 36 -3z"/>
<path d="M359 351 c-37 -38 -38 -86 -4 -159 14 -30 25 -57 25 -61 0 -4 -20
-12 -45 -19 -25 -7 -48 -19 -52 -27 -7 -20 24 -55 49 -55 10 0 18 -7 19 -17 0
-11 3 -13 6 -5 3 8 28 12 74 12 99 0 172 33 150 68 -9 14 -56 32 -86 32 l-23
0 28 53 c38 71 45 109 26 146 -36 68 -115 83 -167 32z m106 -46 c32 -31 31
-39 -4 -76 l-29 -30 -37 36 -36 37 30 29 c37 35 45 36 76 4z"/>
<path d="M1619 351 c-35 -35 -37 -72 -9 -119 l20 -33 -32 3 c-30 3 -33 7 -36
38 -8 86 -105 77 -101 -9 1 -21 -11 -65 -30 -108 -17 -40 -31 -74 -31 -77 0
-2 25 4 55 15 55 19 56 19 103 -1 46 -20 48 -20 96 -1 49 18 51 18 103 0 29
-10 53 -16 53 -14 0 3 -14 36 -31 75 l-31 69 21 36 c47 80 10 155 -76 155 -36
0 -50 -6 -74 -29z m105 -37 c20 -19 20 -24 0 -52 -26 -37 -74 -23 -74 23 0 42
44 59 74 29z m-197 -55 c15 -15 5 -39 -17 -39 -22 0 -32 24 -17 39 6 6 14 11
17 11 3 0 11 -5 17 -11z m95 -85 c17 4 29 -3 49 -27 l27 -32 13 28 c7 15 15
27 18 27 3 0 13 -20 22 -45 9 -25 15 -45 12 -45 -2 0 -17 7 -33 15 -26 14 -33
13 -76 -6 l-48 -20 -48 20 c-44 18 -51 19 -83 5 l-35 -14 10 25 c6 14 15 37
20 51 10 26 11 26 26 8 14 -19 15 -18 30 3 13 19 19 20 45 11 16 -6 39 -8 51
-4z"/>
<path d="M2684 320 c-40 -16 -74 -68 -74 -113 0 -59 29 -101 83 -122 43 -16
47 -16 89 3 74 33 100 117 55 183 -36 53 -95 73 -153 49z m115 -37 c34 -32 52
-83 29 -83 -8 0 -14 10 -13 28 0 19 -5 27 -16 26 -9 -1 -16 5 -15 13 0 9 -9
19 -21 24 -15 5 -23 5 -23 -3 0 -7 -4 -7 -12 0 -19 14 -59 -3 -52 -23 4 -11 2
-14 -9 -9 -20 7 -35 -35 -16 -47 11 -7 10 -9 -3 -9 -23 0 -23 38 0 66 42 52
106 59 151 17z m-49 -74 c0 -10 -24 -39 -33 -39 -2 0 -2 11 1 25 4 24 32 36
32 14z"/>
<path d="M3210 285 c0 -11 -11 -15 -38 -15 -54 0 -89 -50 -83 -117 1 -7 17
-19 36 -28 33 -16 36 -16 64 4 16 12 37 21 48 21 14 0 13 -3 -7 -13 -36 -18
-36 -40 1 -56 22 -10 34 -10 42 -2 15 15 122 14 147 -1 15 -10 23 -9 40 7 33
30 4 90 -49 98 -23 4 -22 4 7 6 17 0 32 -3 32 -9 0 -5 5 -10 10 -10 6 0 10 28
10 65 l0 65 -130 0 c-109 0 -130 -2 -130 -15z m-20 -29 c0 -2 3 -11 6 -20 5
-13 -2 -16 -35 -16 -39 0 -41 1 -31 20 9 17 60 30 60 16z m153 -73 c-23 -2
-47 -11 -53 -19 -7 -7 -17 -14 -22 -14 -6 0 0 9 13 20 16 13 37 19 64 18 l40
-1 -42 -4z m17 -23 c0 -5 -12 -10 -26 -10 -14 0 -23 4 -19 10 3 6 15 10 26 10
10 0 19 -4 19 -10z m75 0 c4 -6 -7 -10 -24 -10 -17 0 -31 5 -31 10 0 6 11 10
24 10 14 0 28 -4 31 -10z m-267 -18 c2 -7 -3 -12 -12 -12 -9 0 -16 7 -16 16 0
17 22 14 28 -4z"/>
<path d="M2007 283 c-4 -3 -7 -42 -7 -85 l0 -78 165 0 c158 0 165 1 165 20 0
11 5 20 10 20 6 0 10 20 10 45 0 25 -4 45 -10 45 -5 0 -10 9 -10 20 0 19 -7
20 -158 20 -87 0 -162 -3 -165 -7z m298 -78 l0 -50 -137 -3 c-76 -1 -138 1
-138 6 0 5 12 7 27 4 23 -4 25 -2 19 14 -4 10 -10 31 -13 47 -7 37 -21 34 -26
-5 -4 -32 -4 -32 -5 5 l-2 38 138 -3 137 -3 0 -50z"/>
<path d="M3850 147 l0 -66 33 -5 c17 -3 51 -7 75 -11 l42 -5 0 70 0 70 -59 0
c-33 0 -66 3 -75 6 -14 5 -16 -4 -16 -59z"/>
<path d="M300 10 c-12 -8 -9 -10 13 -10 16 0 26 4 22 10 -8 12 -16 12 -35 0z"/>
<path d="M2625 10 c-3 -5 1 -10 9 -10 9 0 16 5 16 10 0 6 -4 10 -9 10 -6 0
-13 -4 -16 -10z"/>
<path d="M2669 9 c-10 -6 -7 -9 14 -9 29 0 35 5 14 13 -8 3 -20 1 -28 -4z"/>
<path d="M2748 8 c-13 -3 5 -6 45 -7 37 -1 67 2 67 7 0 9 -80 9 -112 0z"/>
<path d="M3240 10 c0 -5 5 -10 10 -10 6 0 10 5 10 10 0 6 -4 10 -10 10 -5 0
-10 -4 -10 -10z"/>
<path d="M3320 10 c0 -5 5 -10 11 -10 5 0 7 5 4 10 -3 6 -8 10 -11 10 -2 0 -4
-4 -4 -10z"/>
<path d="M3350 16 c0 -2 7 -6 15 -10 8 -3 15 -1 15 4 0 6 -7 10 -15 10 -8 0
-15 -2 -15 -4z"/>
<path d="M378 3 c7 -3 16 -2 19 1 4 3 -2 6 -13 5 -11 0 -14 -3 -6 -6z"/>
<path d="M448 3 c12 -2 32 -2 45 0 12 2 2 4 -23 4 -25 0 -35 -2 -22 -4z"/>
<path d="M543 3 c9 -2 23 -2 30 0 6 3 -1 5 -18 5 -16 0 -22 -2 -12 -5z"/>
<path d="M2293 3 c15 -2 37 -2 50 0 12 2 0 4 -28 4 -27 0 -38 -2 -22 -4z"/>
<path d="M2563 3 c9 -2 25 -2 35 0 9 3 1 5 -18 5 -19 0 -27 -2 -17 -5z"/>
<path d="M2883 3 c9 -2 23 -2 30 0 6 3 -1 5 -18 5 -16 0 -22 -2 -12 -5z"/>
</g>
</svg>
